# xmcd
#
# Track frame offsets:
#	150
#	12172
#	22750
#	35076
#	43753
#	52423
#	65537
#	75939
#	95531
#	104263
#	116807
#	129606
#	139520
#	151125
#	160940
#
# Disc length: 2307 seconds
#
# Revision: 0
# Processed by: cddbd v1.5.1PL0 Copyright (c) Steve Scherf et al.
# Submitted via: dBpowerAMP V4.0
#
DISCID=c009010f
DTITLE=wolfango - stagnola
DYEAR=1900
DGENRE=
TTITLE0=i ricchi pagano 70000
TTITLE1=annalisa
TTITLE2=se tu
TTITLE3=volavia
TTITLE4=ti ringrazio
TTITLE5=agrodolce
TTITLE6=silvester
TTITLE7=marziano
TTITLE8=abitudine
TTITLE9=cicatrice
TTITLE10=simco
TTITLE11=perle
TTITLE12=pomodori
TTITLE13=lillipuziani
TTITLE14=stagnola
EXTD=
EXTT0=
EXTT1=
EXTT2=
EXTT3=
EXTT4=
EXTT5=
EXTT6=
EXTT7=
EXTT8=
EXTT9=
EXTT10=
EXTT11=
EXTT12=
EXTT13=
EXTT14=
PLAYORDER=
